<svg xmlns="http://www.w3.org/2000/svg" font-family="sans-serif" viewBox="0 0 830 270">
  <path fill="#fa9a9b" d="m132 98-9 3c-7 4-17 10-21 18-5 12 2 34 16 38 0-14 4-28 8-41 2-6 6-12 6-18z"/>
  <path fill="#fa9a9b" d="m115 81-6 1c-13 3-24 23-18 36 6-2 11-8 16-11 12-7 25-13 38-17-2-3-7-4-11-5-5-2-12-4-19-4z"/>
  <path fill="#f53737" d="M131 59c-7 0-14 2-20 6-2 2-6 4-6 7l3 2 10 3c10 3 19 6 28 11 5 3 10 7 15 8-2-13-9-32-24-36l-6-1z"/>
  <path fill="#f53737" d="m152 53-4 1 9 21c4 12 7 25 9 37 4-2 7-8 9-12 3-7 7-15 6-22-2-13-16-25-29-25z"/>
  <path fill="#f53737" d="M190 77c-2 0-2 2-2 3a155 155 0 0 1-20 34l-11 14c13 0 32-2 38-15 5-9 5-20 1-28-1-3-3-8-6-8z"/>
  <path fill="#f53737" d="M201 126c-20 6-42 3-61 1 1 4 5 8 8 11 10 10 21 17 35 11 6-3 12-8 16-15 1-2 3-5 2-8z"/>
  <path fill="#7f201e" d="M151 18h-8a90 90 0 0 0-67 39c-10 14-15 31-17 48-2 20 8 40 18 57 15 25 36 48 55 70l13 15c1 1 3 5 5 5s5-5 7-7l14-17c2-2 6-5 6-8 0-2-5-4-6-5-6 5-10 13-17 16-8 2-14-3-18-7-10-10-19-22-28-33-11-15-23-29-31-46-10-23-11-53 5-74 6-8 15-14 24-19a86 86 0 0 1 112 21c14 20 16 53 3 74a58 58 0 0 1-19 18c-17 10-31-2-43-13s-23-22-31-35c-3 4-2 15-2 21 0 10 0 21 6 29 5 7 13 10 21 12 16 5 38 13 53 1 9-6 14-16 20-25 21-37 16-85-16-114a94 94 0 0 0-59-23z"/>
  <text x="351" y="134" fill="#f53737" font-size="80" font-weight="700">photo-cli</text>
  <text x="408" y="194" fill="#fa9a9b" font-size="15" font-style="italic" font-weight="400">A photo organizer for your file system</text>
  <text x="381" y="216" fill="#fa9a9b" font-size="15" font-style="italic" font-weight="400">without sticking to any application or vendor</text>
</svg>
